<svg xmlns="http://www.w3.org/2000/svg" version="1.1" viewBox="0.00 0.00 1000.00 1000.00" width="1000.00" height="1000.00">
<g stroke-width="2.00" fill="none" stroke-linecap="butt">
<path stroke="#b39ce0" d="&#10;  M 281.88 438.75&#10;  Q 295.72 443.98 309.49 440.49&#10;  Q 323.88 436.85 333.12 426.24&#10;  C 347.76 409.41 347.29 382.70 332.33 366.45&#10;  Q 318.40 351.31 296.26 351.95&#10;  C 272.53 352.63 253.21 373.32 253.58 396.85&#10;  Q 253.74 406.79 257.96 416.04&#10;  Q 258.81 417.92 261.95 423.36"/>
<path stroke="#b39ce0" d="&#10;  M 605.69 725.61&#10;  Q 610.36 749.33 631.23 758.59&#10;  C 667.33 774.62 705.54 741.47 695.02 703.57&#10;  C 689.82 684.86 672.85 672.20 653.71 671.32&#10;  C 634.77 670.46 617.86 681.08 609.36 698.15"/>
<path stroke="#b39ce0" d="&#10;  M 755.04 380.04&#10;  C 773.14 374.73 785.92 360.86 789.58 342.48&#10;  Q 792.25 329.09 787.46 316.30&#10;  Q 778.66 292.83 754.04 286.33&#10;  C 735.06 281.31 714.14 287.70 702.18 303.60&#10;  C 685.26 326.11 690.51 359.07 714.60 374.14&#10;  Q 721.70 378.58 729.43 380.37"/>
<path stroke="#b39ce0" d="&#10;  M 747.24 381.47&#10;  L 744.28 381.60"/>
<path stroke="#b39ce0" d="&#10;  M 741.47 381.73&#10;  L 740.53 381.75"/>
<path stroke="#b39ce0" d="&#10;  M 605.10 716.22&#10;  L 605.16 715.54"/>
<path stroke="#b39ce0" d="&#10;  M 744.8479 354.8566&#10;  A 21.39 21.16 82.7 0 0 763.1185 330.9513&#10;  A 21.39 21.16 82.7 0 0 739.4121 312.4234&#10;  A 21.39 21.16 82.7 0 0 721.1415 336.3287&#10;  A 21.39 21.16 82.7 0 0 744.8479 354.8566"/>
<path stroke="#b39ce0" d="&#10;  M 318.21 396.73&#10;  A 19.46 19.46 0.0 0 0 298.75 377.27&#10;  A 19.46 19.46 0.0 0 0 279.29 396.73&#10;  A 19.46 19.46 0.0 0 0 298.75 416.19&#10;  A 19.46 19.46 0.0 0 0 318.21 396.73"/>
<path stroke="#b39ce0" d="&#10;  M 671.18 717.07&#10;  A 20.12 20.12 0.0 0 0 651.06 696.95&#10;  A 20.12 20.12 0.0 0 0 630.94 717.07&#10;  A 20.12 20.12 0.0 0 0 651.06 737.19&#10;  A 20.12 20.12 0.0 0 0 671.18 717.07"/>
</g>
<path fill="#6639c0" d="&#10;  M 826.66 150.84&#10;  C 865.85 180.57 888.15 226.66 890.57 275.52&#10;  Q 890.98 283.77 890.97 302.50&#10;  Q 890.90 643.54 891.00 706.25&#10;  Q 891.02 716.34 889.11 729.61&#10;  Q 882.88 772.89 858.18 806.89&#10;  C 832.80 841.83 796.36 866.29 753.74 874.86&#10;  Q 749.73 875.66 741.67 876.78&#10;  Q 731.40 878.21 720.50 878.20&#10;  Q 615.38 878.15 279.50 878.17&#10;  Q 270.18 878.17 258.64 876.92&#10;  C 212.61 871.92 170.67 846.86 143.45 809.87&#10;  Q 116.33 773.03 111.53 725.99&#10;  C 111.14 722.23 110.34 715.35 110.34 710.31&#10;  Q 110.35 683.82 110.32 289.25&#10;  Q 110.32 252.91 122.20 221.55&#10;  C 124.22 216.22 126.76 211.00 129.50 205.51&#10;  Q 131.78 200.93 132.76 199.24&#10;  Q 165.18 143.49 226.14 124.43&#10;  Q 244.07 118.83 265.26 117.20&#10;  Q 271.11 116.75 284.25 116.74&#10;  Q 355.36 116.69 720.77 116.72&#10;  C 725.49 116.72 731.37 117.01 736.65 117.14&#10;  C 740.24 117.23 743.63 118.22 747.03 118.21&#10;  C 749.57 118.20 751.21 119.09 753.44 119.12&#10;  Q 754.52 119.13 756.02 119.42&#10;  Q 795.03 126.85 826.66 150.84&#10;  Z&#10;  M 281.88 438.75&#10;  Q 295.72 443.98 309.49 440.49&#10;  Q 323.88 436.85 333.12 426.24&#10;  C 347.76 409.41 347.29 382.70 332.33 366.45&#10;  Q 318.40 351.31 296.26 351.95&#10;  C 272.53 352.63 253.21 373.32 253.58 396.85&#10;  Q 253.74 406.79 257.96 416.04&#10;  Q 258.81 417.92 261.95 423.36&#10;  Q 245.58 439.02 240.89 444.14&#10;  Q 231.49 454.43 228.10 467.53&#10;  Q 226.44 473.97 226.45 488.10&#10;  Q 226.47 513.09 226.53 517.97&#10;  C 226.85 545.04 246.47 563.61 272.11 568.89&#10;  Q 278.71 570.25 280.29 570.44&#10;  A 0.45 0.44 14.8 0 1 280.65 571.05&#10;  Q 278.76 575.48 278.00 577.73&#10;  C 266.91 610.34 290.70 638.86 324.27 636.75&#10;  Q 332.83 636.22 342.93 631.92&#10;  Q 385.35 613.87 457.15 583.09&#10;  C 460.38 581.70 464.20 580.49 467.27 581.20&#10;  C 476.00 583.24 481.44 589.73 481.56 598.70&#10;  C 481.76 612.62 481.57 626.39 481.59 639.75&#10;  C 481.61 651.12 483.61 660.61 491.89 669.07&#10;  Q 499.62 676.97 535.54 712.93&#10;  Q 541.74 719.13 545.15 720.98&#10;  C 551.32 724.33 559.13 725.46 565.75 725.47&#10;  Q 585.72 725.50 605.69 725.61&#10;  Q 610.36 749.33 631.23 758.59&#10;  C 667.33 774.62 705.54 741.47 695.02 703.57&#10;  C 689.82 684.86 672.85 672.20 653.71 671.32&#10;  C 634.77 670.46 617.86 681.08 609.36 698.15&#10;  Q 593.32 698.33 577.35 698.22&#10;  Q 571.14 698.17 567.73 697.15&#10;  Q 562.73 695.65 559.37 692.38&#10;  Q 545.93 679.30 532.79 665.96&#10;  C 524.60 657.65 518.89 652.01 518.68 641.75&#10;  Q 518.48 631.93 518.57 602.02&#10;  C 518.60 594.42 519.61 589.46 525.15 584.93&#10;  Q 532.34 579.05 541.18 582.11&#10;  Q 543.04 582.76 546.53 584.25&#10;  Q 612.39 612.44 646.82 627.50&#10;  C 660.47 633.46 669.63 637.37 682.20 636.84&#10;  C 715.21 635.46 735.97 602.17 718.52 572.74&#10;  Q 698.48 538.94 694.19 531.92&#10;  Q 693.42 530.66 692.51 529.67&#10;  A 1.60 1.59 -43.6 0 1 692.57 527.44&#10;  Q 717.07 503.61 742.63 477.74&#10;  Q 747.94 472.36 749.43 469.45&#10;  Q 751.94 464.52 753.49 459.43&#10;  Q 754.88 454.88 754.96 443.41&#10;  Q 755.17 411.74 755.04 380.04&#10;  C 773.14 374.73 785.92 360.86 789.58 342.48&#10;  Q 792.25 329.09 787.46 316.30&#10;  Q 778.66 292.83 754.04 286.33&#10;  C 735.06 281.31 714.14 287.70 702.18 303.60&#10;  C 685.26 326.11 690.51 359.07 714.60 374.14&#10;  Q 721.70 378.58 729.43 380.37&#10;  Q 729.39 415.50 729.43 450.25&#10;  Q 729.43 454.25 727.42 458.20&#10;  Q 726.11 460.78 722.18 464.54&#10;  Q 703.32 482.59 680.11 505.82&#10;  A 0.85 0.85 0.0 0 1 678.78 505.67&#10;  C 675.19 499.84 671.78 494.60 668.65 489.23&#10;  Q 620.78 407.31 570.24 323.03&#10;  Q 554.89 297.43 536.40 265.87&#10;  Q 532.13 258.59 528.34 254.63&#10;  C 517.32 243.11 501.08 238.71 486.16 244.68&#10;  C 474.89 249.19 468.91 256.36 462.79 266.55&#10;  Q 445.92 294.64 406.13 361.35&#10;  Q 353.32 449.88 306.02 530.37&#10;  Q 300.12 540.42 296.92 542.82&#10;  Q 290.10 547.94 280.43 545.54&#10;  C 266.71 542.13 254.70 537.39 254.64 520.93&#10;  Q 254.56 498.80 254.70 476.77&#10;  Q 254.76 466.65 261.70 459.71&#10;  Q 273.85 447.56 281.88 438.75&#10;  Z"/>
<path fill="#ffffff" d="&#10;  M 755.04 380.04&#10;  L 747.24 381.47&#10;  L 744.28 381.60&#10;  L 741.47 381.73&#10;  L 740.53 381.75&#10;  L 729.43 380.37&#10;  Q 721.70 378.58 714.60 374.14&#10;  C 690.51 359.07 685.26 326.11 702.18 303.60&#10;  C 714.14 287.70 735.06 281.31 754.04 286.33&#10;  Q 778.66 292.83 787.46 316.30&#10;  Q 792.25 329.09 789.58 342.48&#10;  C 785.92 360.86 773.14 374.73 755.04 380.04&#10;  Z&#10;  M 744.8479 354.8566&#10;  A 21.39 21.16 82.7 0 0 763.1185 330.9513&#10;  A 21.39 21.16 82.7 0 0 739.4121 312.4234&#10;  A 21.39 21.16 82.7 0 0 721.1415 336.3287&#10;  A 21.39 21.16 82.7 0 0 744.8479 354.8566&#10;  Z"/>
<ellipse fill="#6639c0" cx="0.00" cy="0.00" transform="translate(742.13,333.64) rotate(82.7)" rx="21.39" ry="21.16"/>
<path fill="#ffffff" d="&#10;  M 281.88 438.75&#10;  Q 268.98 433.48 261.95 423.36&#10;  Q 258.81 417.92 257.96 416.04&#10;  Q 253.74 406.79 253.58 396.85&#10;  C 253.21 373.32 272.53 352.63 296.26 351.95&#10;  Q 318.40 351.31 332.33 366.45&#10;  C 347.29 382.70 347.76 409.41 333.12 426.24&#10;  Q 323.88 436.85 309.49 440.49&#10;  Q 295.72 443.98 281.88 438.75&#10;  Z&#10;  M 318.21 396.73&#10;  A 19.46 19.46 0.0 0 0 298.75 377.27&#10;  A 19.46 19.46 0.0 0 0 279.29 396.73&#10;  A 19.46 19.46 0.0 0 0 298.75 416.19&#10;  A 19.46 19.46 0.0 0 0 318.21 396.73&#10;  Z"/>
<circle fill="#6639c0" cx="298.75" cy="396.73" r="19.46"/>
<path fill="#6639c0" d="&#10;  M 747.24 381.47&#10;  Q 745.94 381.90 744.28 381.60&#10;  L 747.24 381.47&#10;  Z"/>
<path fill="#6639c0" d="&#10;  M 741.47 381.73&#10;  Q 741.06 382.07 740.53 381.75&#10;  L 741.47 381.73&#10;  Z"/>
<path fill="#ffffff" d="&#10;  M 605.69 725.61&#10;  L 605.10 716.22&#10;  L 605.16 715.54&#10;  Q 605.50 706.56 609.36 698.15&#10;  C 617.86 681.08 634.77 670.46 653.71 671.32&#10;  C 672.85 672.20 689.82 684.86 695.02 703.57&#10;  C 705.54 741.47 667.33 774.62 631.23 758.59&#10;  Q 610.36 749.33 605.69 725.61&#10;  Z&#10;  M 671.18 717.07&#10;  A 20.12 20.12 0.0 0 0 651.06 696.95&#10;  A 20.12 20.12 0.0 0 0 630.94 717.07&#10;  A 20.12 20.12 0.0 0 0 651.06 737.19&#10;  A 20.12 20.12 0.0 0 0 671.18 717.07&#10;  Z"/>
<circle fill="#6639c0" cx="651.06" cy="717.07" r="20.12"/>
<path fill="#6639c0" d="&#10;  M 605.16 715.54&#10;  L 605.10 716.22&#10;  L 605.16 715.54&#10;  Z"/>
</svg>